<?xml version="1.0" encoding="utf-8"?>
<!-- Generator: Adobe Illustrator 19.0.1, SVG Export Plug-In . SVG Version: 6.00 Build 0)  -->
<svg version="1.1" id="Layer_1" xmlns="http://www.w3.org/2000/svg" xmlns:xlink="http://www.w3.org/1999/xlink" x="0px" y="0px"
	 viewBox="0 0 240 180" style="enable-background:new 0 0 240 180;" xml:space="preserve">
<style type="text/css">
	.st0{fill:#81DC9E;}
	.st1{fill:none;stroke:#6A6DC7;stroke-width:4;stroke-miterlimit:10;}
	.st2{fill:none;stroke:#6A6DC7;stroke-width:4;stroke-linecap:round;stroke-miterlimit:10;}
	.st3{fill:#FFFFFF;stroke:#F5B126;stroke-width:4;stroke-linecap:round;stroke-linejoin:round;stroke-miterlimit:10;}
	.st4{fill:none;stroke:#6A6DC7;stroke-width:4;stroke-linecap:round;stroke-linejoin:round;stroke-miterlimit:10;}
	.st5{fill:none;stroke:#F5B126;stroke-width:4;stroke-linecap:round;stroke-linejoin:round;stroke-miterlimit:10;}
	.st6{fill:none;stroke:#3CB170;stroke-width:4;stroke-linecap:round;stroke-linejoin:round;stroke-miterlimit:10;}
	.st7{fill:#FFFFFF;stroke:#D21B14;stroke-width:4;stroke-linecap:round;stroke-linejoin:round;stroke-miterlimit:10;}
	.st8{fill:#F45B55;stroke:#D21B14;stroke-width:4;stroke-linecap:round;stroke-linejoin:round;stroke-miterlimit:10;}
	.st9{fill:none;stroke:#D21B14;stroke-width:4;stroke-linecap:round;stroke-linejoin:round;stroke-miterlimit:10;}
	.st10{fill:#FFD56D;stroke:#F5B126;stroke-width:4;stroke-linecap:round;stroke-linejoin:round;stroke-miterlimit:10;}
	.st11{fill:#F5B126;stroke:#F5B126;stroke-width:4;stroke-linecap:round;stroke-linejoin:round;stroke-miterlimit:10;}
	.st12{fill:#D21B14;}
	.st13{fill:#A3A6F1;stroke:#6A6DC7;stroke-width:4;stroke-miterlimit:10;}
	.st14{fill:#FFFFFF;stroke:#6A6DC7;stroke-width:4;stroke-miterlimit:10;}
	.st15{fill:#6A6DC7;}
	.st16{fill:#6A6DC7;stroke:#6A6DC7;stroke-width:4;stroke-miterlimit:10;}
	.st17{fill:#A3A6F1;}
	.st18{fill:none;stroke:#FFFFFF;stroke-width:4;stroke-linecap:round;stroke-linejoin:round;stroke-miterlimit:10;}
	.st19{fill:#FFFFFF;stroke:#3CB170;stroke-width:4;stroke-linejoin:round;stroke-miterlimit:10;}
	.st20{fill:#FFFFFF;stroke:#3CB170;stroke-width:4;stroke-miterlimit:10;}
	.st21{fill:#81DC9E;stroke:#3CB170;stroke-width:4;stroke-linejoin:round;stroke-miterlimit:10;}
	.st22{fill:#81DC9E;stroke:#3CB170;stroke-width:4;stroke-miterlimit:10;}
	.st23{fill:none;stroke:#FED475;stroke-width:4;stroke-linecap:round;stroke-linejoin:round;stroke-miterlimit:10;}
</style>
<rect x="44" y="81" class="st3" width="154" height="65.7"/>
<path class="st3" d="M43.8,81l61.3-56.5c0.3-0.3,0.7-0.6,1-0.9l2.4-1.9c7.3-5.9,17.7-5.9,25,0l2.4,1.9c0.4,0.3,0.7,0.6,1,0.9
	L198.2,81H43.8z"/>
<g>
	<g>
		<line class="st5" x1="222" y1="48" x2="222" y2="64"/>
		<line class="st5" x1="214" y1="56" x2="230" y2="56"/>
	</g>
</g>
<g>
	<g>
		<line class="st5" x1="55" y1="15" x2="55" y2="27"/>
		<line class="st5" x1="49" y1="21" x2="61" y2="21"/>
	</g>
</g>
<g>
	<g>
		<line class="st5" x1="195" y1="2" x2="195" y2="14"/>
		<line class="st5" x1="189" y1="8" x2="201" y2="8"/>
	</g>
</g>
<g>
	<g>
		<line class="st5" x1="105" y1="89" x2="105" y2="105"/>
		<line class="st5" x1="97" y1="97" x2="113" y2="97"/>
	</g>
</g>
<g>
	<g>
		<line class="st5" x1="146" y1="54" x2="146" y2="70"/>
		<line class="st5" x1="138" y1="62" x2="154" y2="62"/>
	</g>
</g>
<g>
	<g>
		<line class="st5" x1="106" y1="44" x2="106" y2="60"/>
		<line class="st5" x1="98" y1="52" x2="114" y2="52"/>
	</g>
</g>
<circle class="st5" cx="26" cy="58" r="8"/>
<path class="st10" d="M136.4,129l-5.4-4.4c-5.9-4.7-14.2-4.7-20,0l-5.4,4.4L44,80.5V166c0,6.6,5.4,12,12,12h130c6.6,0,12-5.4,12-12
	V80.5L136.4,129z"/>
<line class="st3" x1="137" y1="129" x2="192" y2="173.2"/>
<line class="st3" x1="105" y1="129" x2="47.7" y2="175"/>
<path class="st11" d="M189,87.3V157c0,9.9-8.1,18-18,18H55c-0.7,0-1.3,0-2-0.1c3.1,2,6.8,3.1,10.7,3.1h114c11,0,20-9,20-20V80.5
	L189,87.3z"/>
<circle class="st18" cx="172" cy="125" r="6"/>
<circle class="st5" cx="158" cy="15" r="8"/>
<line class="st5" x1="52" y1="109" x2="52" y2="132"/>
<line class="st5" x1="52" y1="100" x2="52" y2="101"/>
</svg>
